<?xml version="1.0" encoding="UTF-8" standalone="no"?>
<!-- Created with Inkscape (http://www.inkscape.org/) -->

<svg
   xmlns:dc="http://purl.org/dc/elements/1.1/"
   xmlns:cc="http://creativecommons.org/ns#"
   xmlns:rdf="http://www.w3.org/1999/02/22-rdf-syntax-ns#"
   xmlns:svg="http://www.w3.org/2000/svg"
   xmlns="http://www.w3.org/2000/svg"
   xmlns:sodipodi="http://sodipodi.sourceforge.net/DTD/sodipodi-0.dtd"
   xmlns:inkscape="http://www.inkscape.org/namespaces/inkscape"
   width="16px"
   height="16px"
   viewBox="0 0 16 16"
   version="1.1"
   id="SVGRoot"
   inkscape:version="0.92.4 (unknown)"
   sodipodi:docname="aperture.svg">
  <defs
     id="defs815" />
  <sodipodi:namedview
     id="base"
     pagecolor="#ffffff"
     bordercolor="#666666"
     borderopacity="1.0"
     inkscape:pageopacity="0.0"
     inkscape:pageshadow="2"
     inkscape:zoom="32"
     inkscape:cx="8"
     inkscape:cy="8"
     inkscape:document-units="px"
     inkscape:current-layer="layer1"
     showgrid="false"
     inkscape:window-width="1920"
     inkscape:window-height="1020"
     inkscape:window-x="0"
     inkscape:window-y="28"
     inkscape:window-maximized="1"
     inkscape:grid-bbox="true" />
  <metadata
     id="metadata818">
    <rdf:RDF>
      <cc:Work
         rdf:about="">
        <dc:format>image/svg+xml</dc:format>
        <dc:type
           rdf:resource="http://purl.org/dc/dcmitype/StillImage" />
        <dc:title></dc:title>
      </cc:Work>
    </rdf:RDF>
  </metadata>
  <g
     inkscape:label="Calque 1"
     inkscape:groupmode="layer"
     id="layer1">
    <path
       style="stroke-width:0.07970522"
       inkscape:connector-curvature="0"
       d="m 8.0887024,-0.0144182 c -4.4244364,0 -8.0240884,3.6066614 -8.0240884,8.0397116 0,4.4330516 3.5995723,8.0397146 8.0240884,8.0397146 4.4245166,0 8.0240886,-3.606583 8.0240886,-8.0397146 0,-4.432734 -3.599175,-8.0397116 -8.0240886,-8.0397116 z m 0,11.5142542 c -1.9122609,0 -3.4678686,-1.5586373 -3.4678686,-3.4746209 0,-1.9160632 1.5556077,-3.474621 3.4678686,-3.474621 1.9123396,0 3.4678686,1.5586369 3.4678686,3.474621 0,1.9163852 -1.555131,3.4745419 -3.4677892,3.4745419 z m 5.6886086,0.317537 -1.149985,-4.841939 -0.0011,3.162e-4 C 12.511239,6.4773486 12.317106,6.0090263 12.056804,5.5854605 l 2.667132,0.7972629 c 0.129872,0.526729 0.200183,1.0766719 0.200183,1.6430516 7.9e-4,1.402582 -0.422027,2.70623 -1.145844,3.792876 z M 14.209688,4.9863668 9.449541,3.5633629 9.4492222,3.5646805 C 8.9608653,3.4151673 8.4590514,3.3492646 7.9628105,3.3635465 L 9.9855144,1.4477999 c 0.5202086,0.1505475 1.0306226,0.3646064 1.5201736,0.6478357 1.211139,0.7004972 2.126858,1.7193227 2.704159,2.8905336 z M 8.5234696,1.1927723 4.9135459,4.6116286 4.9145302,4.6122874 C 4.5411578,4.9612613 4.2332371,5.3638455 3.9974591,5.8014497 L 3.3529524,3.088598 C 3.7431286,2.7124236 4.1835496,2.3765326 4.673021,2.0933891 5.8849551,1.3920157 7.2227015,1.1071133 8.5238188,1.1919225 Z m -6.1225775,3.0412458 1.1501431,4.8418599 0.00125,-2.438e-4 c 0.1149012,0.498401 0.3087946,0.9668088 0.5693366,1.3902968 L 1.4545711,9.6686605 C 1.324459,9.141933 1.2542278,8.59191 1.2542278,8.0256165 c 0,-1.4025819 0.4228228,-2.7062377 1.1466394,-3.7928763 z m -0.4339711,6.8309999 4.7599874,1.42301 4.779e-4,-0.0013 c 0.4883571,0.149467 0.9900117,0.215206 1.4862518,0.201168 l -2.0226247,1.91553 C 5.6708053,14.45288 5.1603121,14.23882 4.67084,13.955591 3.4581098,13.2551 2.5423906,12.236274 1.9658855,11.065058 Z m 5.6894026,3.793673 3.6100034,-3.418928 -8.55e-4,-0.0013 c 0.373296,-0.348889 0.681137,-0.751315 0.917074,-1.189084 l 0.644428,2.713016 c -0.390257,0.376096 -0.830519,0.711981 -1.319991,0.995209 -1.211934,0.700497 -2.5504763,0.985322 -3.8507976,0.900749 z"
       id="path2" />
  </g>
</svg>
