<?xml version="1.0" encoding="UTF-8" standalone="no"?>
<svg
   xmlns:dc="http://purl.org/dc/elements/1.1/"
   xmlns:cc="http://creativecommons.org/ns#"
   xmlns:rdf="http://www.w3.org/1999/02/22-rdf-syntax-ns#"
   xmlns:svg="http://www.w3.org/2000/svg"
   xmlns="http://www.w3.org/2000/svg"
   xmlns:sodipodi="http://sodipodi.sourceforge.net/DTD/sodipodi-0.dtd"
   xmlns:inkscape="http://www.inkscape.org/namespaces/inkscape"
   width="115.03"
   height="69.677"
   version="1.1"
   viewBox="0 0 115.03307 69.676666"
   xml:space="preserve"
   id="svg10"
   sodipodi:docname="astronomical-1299501.svg"
   inkscape:version="0.92.4 (unknown)"><metadata
     id="metadata16"><rdf:RDF><cc:Work
         rdf:about=""><dc:format>image/svg+xml</dc:format><dc:type
           rdf:resource="http://purl.org/dc/dcmitype/StillImage" /></cc:Work></rdf:RDF></metadata><defs
     id="defs14" /><sodipodi:namedview
     pagecolor="#ffffff"
     bordercolor="#666666"
     borderopacity="1"
     objecttolerance="10"
     gridtolerance="10"
     guidetolerance="10"
     inkscape:pageopacity="0"
     inkscape:pageshadow="2"
     inkscape:window-width="1920"
     inkscape:window-height="1020"
     id="namedview12"
     showgrid="false"
     inkscape:zoom="3.3870573"
     inkscape:cx="57.514999"
     inkscape:cy="34.838501"
     inkscape:window-x="0"
     inkscape:window-y="28"
     inkscape:window-maximized="1"
     inkscape:current-layer="svg10" /><g
     transform="matrix(.86603 .5 -.5 .86603 47.071 -38.744)"
     id="g6"><path
       d="m13.777 47.225a66 12.903 0 0 0 -33.938 11.271 66 12.903 0 0 0 66 12.904 66 12.903 0 0 0 66 -12.904 66 12.903 0 0 0 -33.826 -11.248c0.46822 1.2998 0.84965 2.635 1.1523 3.9941a52.8 9.3626 0 0 1 19.475 7.2539 52.8 9.3626 0 0 1 -52.801 9.3633 52.8 9.3626 0 0 1 -52.801 -9.3633 52.8 9.3626 0 0 1 19.561 -7.2676c0.30395-1.3609 0.70316-2.6959 1.1777-4.0039z"
       id="path2" /><path
       d="m45.883 25.461a33 33 0 0 0 -32.998 32.945v0.10938a33 33 0 0 0 0.61523 6.209c21.431 2.8907 43.325 3.0198 64.758-0.0098a33 33 0 0 0 0.625 -6.2539 33 33 0 0 0 -33 -33zm-30.516 45.506a33 33 0 0 0 30.516 20.494 33 33 0 0 0 30.486 -20.434c-13.196 1.3592-26.608 1.3167-39.777 1.2324-6.9905-0.40507-14.13-0.67413-21.225-1.293z"
       id="path4" /></g></svg>