<?xml version="1.0" encoding="UTF-8" standalone="no"?>
<!-- Created with Inkscape (http://www.inkscape.org/) -->

<svg
   xmlns:dc="http://purl.org/dc/elements/1.1/"
   xmlns:cc="http://creativecommons.org/ns#"
   xmlns:rdf="http://www.w3.org/1999/02/22-rdf-syntax-ns#"
   xmlns:svg="http://www.w3.org/2000/svg"
   xmlns="http://www.w3.org/2000/svg"
   xmlns:sodipodi="http://sodipodi.sourceforge.net/DTD/sodipodi-0.dtd"
   xmlns:inkscape="http://www.inkscape.org/namespaces/inkscape"
   id="svg2"
   version="1.1"
   inkscape:version="0.91 r13725"
   xml:space="preserve"
   width="650"
   height="650"
   viewBox="0 0 650 650"
   sodipodi:docname="upload.svg"><metadata
     id="metadata8"><rdf:RDF><cc:Work
         rdf:about=""><dc:format>image/svg+xml</dc:format><dc:type
           rdf:resource="http://purl.org/dc/dcmitype/StillImage" /></cc:Work></rdf:RDF></metadata><defs
     id="defs6"><clipPath
       clipPathUnits="userSpaceOnUse"
       id="clipPath16"><path
         d="M 0,0 520,0 520,520 0,520 0,0 Z"
         id="path18"
         inkscape:connector-curvature="0" /></clipPath><radialGradient
       fx="0"
       fy="0"
       cx="0"
       cy="0"
       r="1"
       gradientUnits="userSpaceOnUse"
       gradientTransform="matrix(260,0,0,-260,260,260)"
       spreadMethod="pad"
       id="radialGradient24"><stop
         style="stop-opacity:1;stop-color:#ffffff"
         offset="0"
         id="stop26" /><stop
         style="stop-opacity:1;stop-color:#e7e8e9"
         offset="1"
         id="stop28" /></radialGradient><clipPath
       clipPathUnits="userSpaceOnUse"
       id="clipPath36"><path
         d="M 0,520 520,520 520,0 0,0 0,520 Z"
         id="path38"
         inkscape:connector-curvature="0" /></clipPath></defs><sodipodi:namedview
     pagecolor="#ffffff"
     bordercolor="#666666"
     borderopacity="1"
     objecttolerance="10"
     gridtolerance="10"
     guidetolerance="10"
     inkscape:pageopacity="0"
     inkscape:pageshadow="2"
     inkscape:window-width="1920"
     inkscape:window-height="1015"
     id="namedview4"
     showgrid="false"
     inkscape:zoom="0.7881521"
     inkscape:cx="325"
     inkscape:cy="320.66688"
     inkscape:window-x="0"
     inkscape:window-y="0"
     inkscape:window-maximized="1"
     inkscape:current-layer="g34" /><g
     id="g10"
     inkscape:groupmode="layer"
     inkscape:label="upload"
     transform="matrix(1.25,0,0,-1.25,0,650)"><g
       clip-path="url(#clipPath36)"
       id="g34"
       transform="translate(-2.2033898,14.872881)"><g
         transform="matrix(1.9648823,0,0,1.9648823,375.42389,182.44446)"
         id="g40"
         style="fill:#ffffff;fill-opacity:1;stroke:none"><path
           inkscape:connector-curvature="0"
           id="path42"
           style="fill:#ffffff;fill-opacity:1;fill-rule:nonzero;stroke:none"
           d="m 0,0 -1.333,0 c -2.209,0 -4,-1.791 -4,-4 0,-2.209 1.791,-4 4,-4 L 0,-8 c 2.209,0 4,1.791 4,4 0,2.209 -1.791,4 -4,4" /></g><g
         transform="matrix(1.9648823,0,0,1.9648823,417.64017,367.50042)"
         id="g44"
         style="fill:#ffffff;fill-opacity:1;stroke:none"><path
           inkscape:connector-curvature="0"
           id="path46"
           style="fill:#ffffff;fill-opacity:1;fill-rule:nonzero;stroke:none"
           d="m 0,0 -13.44,0 c -12.6,25.922 -38.427,43.167 -65.045,43.167 -20.87,0 -40.711,-9.03 -54.434,-24.775 -1.452,-1.665 -1.279,-4.192 0.387,-5.643 1.665,-1.452 4.192,-1.279 5.643,0.386 12.204,14.001 29.847,22.032 48.404,22.032 24.317,0 47.965,-16.395 58.846,-40.796 0.664,-1.488 2.125,-2.372 3.656,-2.372 0.083,0 0.166,0.021 0.249,0.026 C -15.65,-7.98 -15.57,-8 -15.485,-8 L 0,-8 c 23.761,0 43.091,-19.331 43.091,-43.091 0,-23.761 -19.33,-43.091 -43.091,-43.091 l -9.568,0 c -2.209,0 -4,-1.791 -4,-4 0,-2.209 1.791,-4 4,-4 l 9.568,0 c 28.172,0 51.091,22.919 51.091,51.091 C 51.091,-22.919 28.172,0 0,0" /></g><g
         transform="matrix(1.9648823,0,0,1.9648823,366.36323,320.15894)"
         id="g48"
         style="fill:#ffffff;fill-opacity:1;stroke:none"><path
           inkscape:connector-curvature="0"
           id="path50"
           style="fill:#ffffff;fill-opacity:1;fill-rule:nonzero;stroke:none"
           d="m 0,0 c 0.129,-0.017 0.257,-0.039 0.391,-0.039 l 13.886,0 c 14.916,0 28.787,-8.731 35.337,-22.243 0.518,-1.07 1.588,-1.693 2.701,-1.693 0.44,0 0.885,0.097 1.307,0.302 1.491,0.723 2.113,2.517 1.391,4.008 C 47.467,-4.098 31.478,5.961 14.277,5.961 l -12.768,0 c -7.333,15.29 -19.923,27.619 -34.829,33.984 -1.521,0.65 -3.286,-0.056 -3.937,-1.581 -0.65,-1.524 0.057,-3.286 1.581,-3.937 14.107,-6.024 25.97,-17.938 32.547,-32.688 0.498,-1.116 1.594,-1.779 2.742,-1.779 0.128,0 0.258,0.023 0.387,0.04" /></g><g
         transform="matrix(1.9648823,0,0,1.9648823,468.53888,264.12521)"
         id="g52"
         style="fill:#ffffff;fill-opacity:1;stroke:none"><path
           inkscape:connector-curvature="0"
           id="path54"
           style="fill:#ffffff;fill-opacity:1;fill-rule:nonzero;stroke:none"
           d="m 0,0 c 0.861,-3.002 1.358,-6.111 1.479,-9.241 0.062,-1.616 1.392,-2.885 2.996,-2.885 0.039,0 0.078,10e-4 0.117,0.002 1.655,0.063 2.946,1.457 2.883,3.113 C 7.336,-5.399 6.762,-1.812 5.768,1.654 5.311,3.247 3.651,4.169 2.057,3.711 0.464,3.254 -0.457,1.593 0,0" /></g><g
         transform="matrix(1.9648823,0,0,1.9648823,350.37164,182.44446)"
         id="g56"
         style="fill:#ffffff;fill-opacity:1;stroke:none"><path
           inkscape:connector-curvature="0"
           id="path58"
           style="fill:#ffffff;fill-opacity:1;fill-rule:nonzero;stroke:none"
           d="m 0,0 -22.75,0 0,18.43 c 0,2.209 -1.791,4 -4,4 l -35,0 c -2.209,0 -4,-1.791 -4,-4 l 0,-18.43 -56.985,0 c -23.761,0 -43.091,19.33 -43.091,43.091 0,23.76 19.33,43.091 43.091,43.091 l 14.818,0 c 1.479,0 2.755,0.811 3.447,2.003 0.309,0.339 0.57,0.729 0.753,1.178 1.328,3.26 2.94,6.434 4.789,9.435 1.16,1.88 0.575,4.345 -1.305,5.504 -1.881,1.16 -4.345,0.573 -5.504,-1.306 -1.739,-2.82 -3.276,-5.78 -4.611,-8.814 l -12.387,0 c -28.172,0 -51.091,-22.92 -51.091,-51.091 0,-28.172 22.919,-51.091 51.091,-51.091 l 56.985,0 0,-24.32 -15.5,0 c -1.557,0 -2.973,-0.904 -3.628,-2.316 -0.656,-1.413 -0.432,-3.077 0.574,-4.267 l 22.011,-26.026 c 0.791,-0.936 1.919,-1.417 3.056,-1.417 0.912,0 1.83,0.31 2.581,0.945 1.687,1.427 1.898,3.951 0.471,5.638 l -16.443,19.443 10.878,0 c 2.209,0 4,1.791 4,4 l 0,50.75 27,0 0,-50.75 c 0,-2.209 1.791,-4 4,-4 l 10.879,0 -28.379,-33.555 -3.129,3.7 c -1.426,1.686 -3.95,1.897 -5.637,0.471 -1.687,-1.426 -1.898,-3.951 -0.471,-5.637 l 6.183,-7.312 c 0.76,-0.898 1.877,-1.417 3.054,-1.417 1.177,0 2.294,0.519 3.055,1.417 l 37,43.75 c 1.005,1.19 1.229,2.854 0.574,4.267 -0.656,1.412 -2.071,2.316 -3.629,2.316 l -15.5,0 0,24.32 L 0,-8 c 2.209,0 4,1.791 4,4 0,2.209 -1.791,4 -4,4" /></g><g
         id="use4324"
         transform="matrix(1.9648823,0,0,1.9648823,375.42389,182.44446)"
         style="fill:#ffffff;fill-opacity:1;stroke:none"><path
           d="m 0,0 -1.333,0 c -2.209,0 -4,-1.791 -4,-4 0,-2.209 1.791,-4 4,-4 L 0,-8 c 2.209,0 4,1.791 4,4 0,2.209 -1.791,4 -4,4"
           style="fill:#ffffff;fill-opacity:1;fill-rule:nonzero;stroke:none"
           id="path4352"
           inkscape:connector-curvature="0" /></g><g
         id="use4326"
         transform="matrix(1.9648823,0,0,1.9648823,417.64017,367.50042)"
         style="fill:#ffffff;fill-opacity:1;stroke:none"><path
           d="m 0,0 -13.44,0 c -12.6,25.922 -38.427,43.167 -65.045,43.167 -20.87,0 -40.711,-9.03 -54.434,-24.775 -1.452,-1.665 -1.279,-4.192 0.387,-5.643 1.665,-1.452 4.192,-1.279 5.643,0.386 12.204,14.001 29.847,22.032 48.404,22.032 24.317,0 47.965,-16.395 58.846,-40.796 0.664,-1.488 2.125,-2.372 3.656,-2.372 0.083,0 0.166,0.021 0.249,0.026 C -15.65,-7.98 -15.57,-8 -15.485,-8 L 0,-8 c 23.761,0 43.091,-19.331 43.091,-43.091 0,-23.761 -19.33,-43.091 -43.091,-43.091 l -9.568,0 c -2.209,0 -4,-1.791 -4,-4 0,-2.209 1.791,-4 4,-4 l 9.568,0 c 28.172,0 51.091,22.919 51.091,51.091 C 51.091,-22.919 28.172,0 0,0"
           style="fill:#ffffff;fill-opacity:1;fill-rule:nonzero;stroke:none"
           id="path4348"
           inkscape:connector-curvature="0" /></g><g
         id="use4328"
         transform="matrix(1.9648823,0,0,1.9648823,366.36323,320.15894)"
         style="fill:#ffffff;fill-opacity:1;stroke:none"><path
           d="m 0,0 c 0.129,-0.017 0.257,-0.039 0.391,-0.039 l 13.886,0 c 14.916,0 28.787,-8.731 35.337,-22.243 0.518,-1.07 1.588,-1.693 2.701,-1.693 0.44,0 0.885,0.097 1.307,0.302 1.491,0.723 2.113,2.517 1.391,4.008 C 47.467,-4.098 31.478,5.961 14.277,5.961 l -12.768,0 c -7.333,15.29 -19.923,27.619 -34.829,33.984 -1.521,0.65 -3.286,-0.056 -3.937,-1.581 -0.65,-1.524 0.057,-3.286 1.581,-3.937 14.107,-6.024 25.97,-17.938 32.547,-32.688 0.498,-1.116 1.594,-1.779 2.742,-1.779 0.128,0 0.258,0.023 0.387,0.04"
           style="fill:#ffffff;fill-opacity:1;fill-rule:nonzero;stroke:none"
           id="path4344"
           inkscape:connector-curvature="0" /></g><g
         id="use4330"
         transform="matrix(1.9648823,0,0,1.9648823,468.53888,264.12521)"
         style="fill:#ffffff;fill-opacity:1;stroke:none"><path
           d="m 0,0 c 0.861,-3.002 1.358,-6.111 1.479,-9.241 0.062,-1.616 1.392,-2.885 2.996,-2.885 0.039,0 0.078,10e-4 0.117,0.002 1.655,0.063 2.946,1.457 2.883,3.113 C 7.336,-5.399 6.762,-1.812 5.768,1.654 5.311,3.247 3.651,4.169 2.057,3.711 0.464,3.254 -0.457,1.593 0,0"
           style="fill:#ffffff;fill-opacity:1;fill-rule:nonzero;stroke:none"
           id="path4340"
           inkscape:connector-curvature="0" /></g><g
         id="use4332"
         transform="matrix(1.9648823,0,0,1.9648823,350.37164,182.44446)"
         style="fill:#ffffff;fill-opacity:1;stroke:none"><path
           d="m 0,0 -22.75,0 0,18.43 c 0,2.209 -1.791,4 -4,4 l -35,0 c -2.209,0 -4,-1.791 -4,-4 l 0,-18.43 -56.985,0 c -23.761,0 -43.091,19.33 -43.091,43.091 0,23.76 19.33,43.091 43.091,43.091 l 14.818,0 c 1.479,0 2.755,0.811 3.447,2.003 0.309,0.339 0.57,0.729 0.753,1.178 1.328,3.26 2.94,6.434 4.789,9.435 1.16,1.88 0.575,4.345 -1.305,5.504 -1.881,1.16 -4.345,0.573 -5.504,-1.306 -1.739,-2.82 -3.276,-5.78 -4.611,-8.814 l -12.387,0 c -28.172,0 -51.091,-22.92 -51.091,-51.091 0,-28.172 22.919,-51.091 51.091,-51.091 l 56.985,0 0,-24.32 -15.5,0 c -1.557,0 -2.973,-0.904 -3.628,-2.316 -0.656,-1.413 -0.432,-3.077 0.574,-4.267 l 22.011,-26.026 c 0.791,-0.936 1.919,-1.417 3.056,-1.417 0.912,0 1.83,0.31 2.581,0.945 1.687,1.427 1.898,3.951 0.471,5.638 l -16.443,19.443 10.878,0 c 2.209,0 4,1.791 4,4 l 0,50.75 27,0 0,-50.75 c 0,-2.209 1.791,-4 4,-4 l 10.879,0 -28.379,-33.555 -3.129,3.7 c -1.426,1.686 -3.95,1.897 -5.637,0.471 -1.687,-1.426 -1.898,-3.951 -0.471,-5.637 l 6.183,-7.312 c 0.76,-0.898 1.877,-1.417 3.054,-1.417 1.177,0 2.294,0.519 3.055,1.417 l 37,43.75 c 1.005,1.19 1.229,2.854 0.574,4.267 -0.656,1.412 -2.071,2.316 -3.629,2.316 l -15.5,0 0,24.32 L 0,-8 c 2.209,0 4,1.791 4,4 0,2.209 -1.791,4 -4,4"
           style="fill:#ffffff;fill-opacity:1;fill-rule:nonzero;stroke:none"
           id="path4336"
           inkscape:connector-curvature="0" /></g><g
         id="g4354"
         transform="matrix(1.9648823,0,0,1.9648823,375.42389,182.44446)"
         style="fill:#ffffff;fill-opacity:1;stroke:none"><path
           d="m 0,0 -1.333,0 c -2.209,0 -4,-1.791 -4,-4 0,-2.209 1.791,-4 4,-4 L 0,-8 c 2.209,0 4,1.791 4,4 0,2.209 -1.791,4 -4,4"
           style="fill:#ffffff;fill-opacity:1;fill-rule:nonzero;stroke:none"
           id="path4356"
           inkscape:connector-curvature="0" /></g><g
         id="g4358"
         transform="matrix(1.9648823,0,0,1.9648823,417.64017,367.50042)"
         style="fill:#ffffff;fill-opacity:1;stroke:none"><path
           d="m 0,0 -13.44,0 c -12.6,25.922 -38.427,43.167 -65.045,43.167 -20.87,0 -40.711,-9.03 -54.434,-24.775 -1.452,-1.665 -1.279,-4.192 0.387,-5.643 1.665,-1.452 4.192,-1.279 5.643,0.386 12.204,14.001 29.847,22.032 48.404,22.032 24.317,0 47.965,-16.395 58.846,-40.796 0.664,-1.488 2.125,-2.372 3.656,-2.372 0.083,0 0.166,0.021 0.249,0.026 C -15.65,-7.98 -15.57,-8 -15.485,-8 L 0,-8 c 23.761,0 43.091,-19.331 43.091,-43.091 0,-23.761 -19.33,-43.091 -43.091,-43.091 l -9.568,0 c -2.209,0 -4,-1.791 -4,-4 0,-2.209 1.791,-4 4,-4 l 9.568,0 c 28.172,0 51.091,22.919 51.091,51.091 C 51.091,-22.919 28.172,0 0,0"
           style="fill:#ffffff;fill-opacity:1;fill-rule:nonzero;stroke:none"
           id="path4360"
           inkscape:connector-curvature="0" /></g><g
         id="g4362"
         transform="matrix(1.9648823,0,0,1.9648823,366.36323,320.15894)"
         style="fill:#ffffff;fill-opacity:1;stroke:none"><path
           d="m 0,0 c 0.129,-0.017 0.257,-0.039 0.391,-0.039 l 13.886,0 c 14.916,0 28.787,-8.731 35.337,-22.243 0.518,-1.07 1.588,-1.693 2.701,-1.693 0.44,0 0.885,0.097 1.307,0.302 1.491,0.723 2.113,2.517 1.391,4.008 C 47.467,-4.098 31.478,5.961 14.277,5.961 l -12.768,0 c -7.333,15.29 -19.923,27.619 -34.829,33.984 -1.521,0.65 -3.286,-0.056 -3.937,-1.581 -0.65,-1.524 0.057,-3.286 1.581,-3.937 14.107,-6.024 25.97,-17.938 32.547,-32.688 0.498,-1.116 1.594,-1.779 2.742,-1.779 0.128,0 0.258,0.023 0.387,0.04"
           style="fill:#ffffff;fill-opacity:1;fill-rule:nonzero;stroke:none"
           id="path4364"
           inkscape:connector-curvature="0" /></g><g
         id="g4366"
         transform="matrix(1.9648823,0,0,1.9648823,468.53888,264.12521)"
         style="fill:#ffffff;fill-opacity:1;stroke:none"><path
           d="m 0,0 c 0.861,-3.002 1.358,-6.111 1.479,-9.241 0.062,-1.616 1.392,-2.885 2.996,-2.885 0.039,0 0.078,10e-4 0.117,0.002 1.655,0.063 2.946,1.457 2.883,3.113 C 7.336,-5.399 6.762,-1.812 5.768,1.654 5.311,3.247 3.651,4.169 2.057,3.711 0.464,3.254 -0.457,1.593 0,0"
           style="fill:#ffffff;fill-opacity:1;fill-rule:nonzero;stroke:none"
           id="path4368"
           inkscape:connector-curvature="0" /></g><g
         id="g4370"
         transform="matrix(1.9648823,0,0,1.9648823,350.37164,182.44446)"
         style="fill:#ffffff;fill-opacity:1;stroke:none"><path
           d="m 0,0 -22.75,0 0,18.43 c 0,2.209 -1.791,4 -4,4 l -35,0 c -2.209,0 -4,-1.791 -4,-4 l 0,-18.43 -56.985,0 c -23.761,0 -43.091,19.33 -43.091,43.091 0,23.76 19.33,43.091 43.091,43.091 l 14.818,0 c 1.479,0 2.755,0.811 3.447,2.003 0.309,0.339 0.57,0.729 0.753,1.178 1.328,3.26 2.94,6.434 4.789,9.435 1.16,1.88 0.575,4.345 -1.305,5.504 -1.881,1.16 -4.345,0.573 -5.504,-1.306 -1.739,-2.82 -3.276,-5.78 -4.611,-8.814 l -12.387,0 c -28.172,0 -51.091,-22.92 -51.091,-51.091 0,-28.172 22.919,-51.091 51.091,-51.091 l 56.985,0 0,-24.32 -15.5,0 c -1.557,0 -2.973,-0.904 -3.628,-2.316 -0.656,-1.413 -0.432,-3.077 0.574,-4.267 l 22.011,-26.026 c 0.791,-0.936 1.919,-1.417 3.056,-1.417 0.912,0 1.83,0.31 2.581,0.945 1.687,1.427 1.898,3.951 0.471,5.638 l -16.443,19.443 10.878,0 c 2.209,0 4,1.791 4,4 l 0,50.75 27,0 0,-50.75 c 0,-2.209 1.791,-4 4,-4 l 10.879,0 -28.379,-33.555 -3.129,3.7 c -1.426,1.686 -3.95,1.897 -5.637,0.471 -1.687,-1.426 -1.898,-3.951 -0.471,-5.637 l 6.183,-7.312 c 0.76,-0.898 1.877,-1.417 3.054,-1.417 1.177,0 2.294,0.519 3.055,1.417 l 37,43.75 c 1.005,1.19 1.229,2.854 0.574,4.267 -0.656,1.412 -2.071,2.316 -3.629,2.316 l -15.5,0 0,24.32 L 0,-8 c 2.209,0 4,1.791 4,4 0,2.209 -1.791,4 -4,4"
           style="fill:#ffffff;fill-opacity:1;fill-rule:nonzero;stroke:none"
           id="path4372"
           inkscape:connector-curvature="0" /></g><g
         transform="matrix(1.9648823,0,0,1.9648823,375.42389,182.44446)"
         id="g4374"
         style="fill:#ffffff;fill-opacity:1;stroke:none"><path
           inkscape:connector-curvature="0"
           id="path4376"
           style="fill:#ffffff;fill-opacity:1;fill-rule:nonzero;stroke:none"
           d="m 0,0 -1.333,0 c -2.209,0 -4,-1.791 -4,-4 0,-2.209 1.791,-4 4,-4 L 0,-8 c 2.209,0 4,1.791 4,4 0,2.209 -1.791,4 -4,4" /></g><g
         transform="matrix(1.9648823,0,0,1.9648823,417.64017,367.50042)"
         id="g4378"
         style="fill:#ffffff;fill-opacity:1;stroke:none"><path
           inkscape:connector-curvature="0"
           id="path4380"
           style="fill:#ffffff;fill-opacity:1;fill-rule:nonzero;stroke:none"
           d="m 0,0 -13.44,0 c -12.6,25.922 -38.427,43.167 -65.045,43.167 -20.87,0 -40.711,-9.03 -54.434,-24.775 -1.452,-1.665 -1.279,-4.192 0.387,-5.643 1.665,-1.452 4.192,-1.279 5.643,0.386 12.204,14.001 29.847,22.032 48.404,22.032 24.317,0 47.965,-16.395 58.846,-40.796 0.664,-1.488 2.125,-2.372 3.656,-2.372 0.083,0 0.166,0.021 0.249,0.026 C -15.65,-7.98 -15.57,-8 -15.485,-8 L 0,-8 c 23.761,0 43.091,-19.331 43.091,-43.091 0,-23.761 -19.33,-43.091 -43.091,-43.091 l -9.568,0 c -2.209,0 -4,-1.791 -4,-4 0,-2.209 1.791,-4 4,-4 l 9.568,0 c 28.172,0 51.091,22.919 51.091,51.091 C 51.091,-22.919 28.172,0 0,0" /></g><g
         transform="matrix(1.9648823,0,0,1.9648823,366.36323,320.15894)"
         id="g4382"
         style="fill:#ffffff;fill-opacity:1;stroke:none"><path
           inkscape:connector-curvature="0"
           id="path4384"
           style="fill:#ffffff;fill-opacity:1;fill-rule:nonzero;stroke:none"
           d="m 0,0 c 0.129,-0.017 0.257,-0.039 0.391,-0.039 l 13.886,0 c 14.916,0 28.787,-8.731 35.337,-22.243 0.518,-1.07 1.588,-1.693 2.701,-1.693 0.44,0 0.885,0.097 1.307,0.302 1.491,0.723 2.113,2.517 1.391,4.008 C 47.467,-4.098 31.478,5.961 14.277,5.961 l -12.768,0 c -7.333,15.29 -19.923,27.619 -34.829,33.984 -1.521,0.65 -3.286,-0.056 -3.937,-1.581 -0.65,-1.524 0.057,-3.286 1.581,-3.937 14.107,-6.024 25.97,-17.938 32.547,-32.688 0.498,-1.116 1.594,-1.779 2.742,-1.779 0.128,0 0.258,0.023 0.387,0.04" /></g><g
         transform="matrix(1.9648823,0,0,1.9648823,468.53888,264.12521)"
         id="g4386"
         style="fill:#ffffff;fill-opacity:1;stroke:none"><path
           inkscape:connector-curvature="0"
           id="path4388"
           style="fill:#ffffff;fill-opacity:1;fill-rule:nonzero;stroke:none"
           d="m 0,0 c 0.861,-3.002 1.358,-6.111 1.479,-9.241 0.062,-1.616 1.392,-2.885 2.996,-2.885 0.039,0 0.078,10e-4 0.117,0.002 1.655,0.063 2.946,1.457 2.883,3.113 C 7.336,-5.399 6.762,-1.812 5.768,1.654 5.311,3.247 3.651,4.169 2.057,3.711 0.464,3.254 -0.457,1.593 0,0" /></g><g
         transform="matrix(1.9648823,0,0,1.9648823,350.37164,182.44446)"
         id="g4390"
         style="fill:#ffffff;fill-opacity:1;stroke:none"><path
           inkscape:connector-curvature="0"
           id="path4392"
           style="fill:#ffffff;fill-opacity:1;fill-rule:nonzero;stroke:none"
           d="m 0,0 -22.75,0 0,18.43 c 0,2.209 -1.791,4 -4,4 l -35,0 c -2.209,0 -4,-1.791 -4,-4 l 0,-18.43 -56.985,0 c -23.761,0 -43.091,19.33 -43.091,43.091 0,23.76 19.33,43.091 43.091,43.091 l 14.818,0 c 1.479,0 2.755,0.811 3.447,2.003 0.309,0.339 0.57,0.729 0.753,1.178 1.328,3.26 2.94,6.434 4.789,9.435 1.16,1.88 0.575,4.345 -1.305,5.504 -1.881,1.16 -4.345,0.573 -5.504,-1.306 -1.739,-2.82 -3.276,-5.78 -4.611,-8.814 l -12.387,0 c -28.172,0 -51.091,-22.92 -51.091,-51.091 0,-28.172 22.919,-51.091 51.091,-51.091 l 56.985,0 0,-24.32 -15.5,0 c -1.557,0 -2.973,-0.904 -3.628,-2.316 -0.656,-1.413 -0.432,-3.077 0.574,-4.267 l 22.011,-26.026 c 0.791,-0.936 1.919,-1.417 3.056,-1.417 0.912,0 1.83,0.31 2.581,0.945 1.687,1.427 1.898,3.951 0.471,5.638 l -16.443,19.443 10.878,0 c 2.209,0 4,1.791 4,4 l 0,50.75 27,0 0,-50.75 c 0,-2.209 1.791,-4 4,-4 l 10.879,0 -28.379,-33.555 -3.129,3.7 c -1.426,1.686 -3.95,1.897 -5.637,0.471 -1.687,-1.426 -1.898,-3.951 -0.471,-5.637 l 6.183,-7.312 c 0.76,-0.898 1.877,-1.417 3.054,-1.417 1.177,0 2.294,0.519 3.055,1.417 l 37,43.75 c 1.005,1.19 1.229,2.854 0.574,4.267 -0.656,1.412 -2.071,2.316 -3.629,2.316 l -15.5,0 0,24.32 L 0,-8 c 2.209,0 4,1.791 4,4 0,2.209 -1.791,4 -4,4" /></g><ellipse
         style="fill:#ffffff;fill-opacity:1;stroke:none;stroke-width:0.82552898;stroke-opacity:1"
         id="path4417"
         cx="107.76678"
         cy="-268.32117"
         transform="scale(1,-1)"
         rx="89.310104"
         ry="90.325127" /><ellipse
         style="fill:#ffffff;fill-opacity:1;stroke:none;stroke-width:0.82552898;stroke-opacity:1"
         id="path4417-3"
         cx="413.34473"
         cy="-267.99518"
         rx="89.310104"
         ry="90.325127"
         transform="scale(1,-1)" /><ellipse
         style="fill:#0fa831;fill-opacity:1;stroke:none;stroke-width:0.82552898;stroke-opacity:1"
         id="path4417-3-6"
         cx="-172.3822"
         cy="-285.57675"
         rx="89.310104"
         ry="90.325127"
         transform="scale(1,-1)" /><ellipse
         style="fill:#ffffff;fill-opacity:1;stroke:none;stroke-width:0.88995284;stroke-opacity:1"
         id="path4451"
         cx="260.52917"
         cy="-334.29831"
         transform="scale(1,-1)"
         rx="128.35664"
         ry="111.6086" /><rect
         style="fill:#ffffff;fill-opacity:1;stroke:none;stroke-width:0.80000001;stroke-opacity:1"
         id="rect4453"
         width="303.49472"
         height="112.6686"
         x="132.12755"
         y="-280.50159"
         transform="scale(1,-1)" /><rect
         style="fill:#ffffff;fill-opacity:1;stroke:none;stroke-width:0.80000001;stroke-opacity:1"
         id="rect4455"
         width="64.962082"
         height="111.65358"
         x="231.60072"
         y="-173.92317"
         transform="scale(1,-1)" /><path
         sodipodi:type="star"
         style="fill:#ffffff;fill-opacity:1;stroke:none;stroke-width:0.80000001;stroke-opacity:1"
         id="path4457"
         sodipodi:sides="3"
         sodipodi:cx="265.0968"
         sodipodi:cy="-90.690514"
         sodipodi:r1="63.201569"
         sodipodi:r2="31.600784"
         sodipodi:arg1="-0.52113814"
         sodipodi:arg2="0.52605941"
         inkscape:flatsided="false"
         inkscape:rounded="0"
         inkscape:randomized="0"
         d="m 319.90856,-122.15652 -27.48364,47.333691 -27.48363,47.333693 -27.25037,-47.468374 -27.25036,-47.46837 54.734,0.13468 z"
         transform="matrix(1.4414027,0,0,-1.0403747,-118.61456,-13.168675)"
         inkscape:transform-center-x="-0.14010749"
         inkscape:transform-center-y="20.460279" /></g></g></svg>